<svg xmlns="http://www.w3.org/2000/svg" viewBox="0 0 1600 900">
  <rect width="1600" height="900" fill="#07080e"/>
  <circle cx="340" cy="184" r="58" fill="#ec9d73" opacity="0.08"/>
  <path d="M0 566C178 532 336 586 536 546C716 510 908 434 1140 458C1326 478 1452 562 1600 530V900H0Z" fill="#181d2b"/>
  <path d="M0 664C174 628 328 720 570 666C806 614 972 716 1198 668C1358 634 1484 704 1600 694V900H0Z" fill="#2a2437"/>
  <path d="M0 746C164 712 356 792 574 736C794 682 998 802 1240 750C1418 712 1508 760 1600 756V900H0Z" fill="#403149"/>
</svg>
