<svg xmlns="http://www.w3.org/2000/svg" viewBox="0 0 1600 900">
  <rect width="1600" height="900" fill="#05080d"/>
  <circle cx="1216" cy="142" r="68" fill="#7bc4bb" opacity="0.08"/>
  <g fill="#d7f6f1" opacity="0.08">
    <circle cx="150" cy="120" r="1.2"/>
    <circle cx="294" cy="168" r="1.4"/>
    <circle cx="468" cy="102" r="1.1"/>
    <circle cx="612" cy="196" r="1.5"/>
    <circle cx="822" cy="128" r="1.3"/>
    <circle cx="1004" cy="186" r="1.4"/>
  </g>
  <path d="M0 602L174 548L390 622L586 564L776 632L976 524L1180 628L1372 556L1600 620V900H0Z" fill="#0f1823"/>
  <path d="M0 700L222 650L410 712L634 664L826 730L1018 650L1264 736L1436 694L1600 726V900H0Z" fill="#18303a"/>
  <path d="M0 786L238 740L444 794L684 732L926 806L1186 758L1398 812L1600 786V900H0Z" fill="#1f4650"/>
</svg>
