<svg xmlns="http://www.w3.org/2000/svg" viewBox="0 0 1600 900">
  <rect width="1600" height="900" fill="#05080f"/>
  <circle cx="1260" cy="196" r="74" fill="#8fc8bf" opacity="0.08"/>
  <g fill="#d8f0ec" opacity="0.09">
    <circle cx="142" cy="136" r="1.3"/>
    <circle cx="286" cy="96" r="1.2"/>
    <circle cx="510" cy="172" r="1.4"/>
    <circle cx="690" cy="120" r="1.3"/>
    <circle cx="930" cy="160" r="1.5"/>
    <circle cx="1106" cy="98" r="1.2"/>
  </g>
  <path d="M0 588L220 520L396 566L576 470L776 564L934 506L1154 596L1332 522L1600 590V900H0Z" fill="#10202a"/>
  <path d="M0 670L156 622L332 690L514 614L694 722L868 646L1076 730L1288 620L1600 702V900H0Z" fill="#173140"/>
  <path d="M0 762L248 710L416 760L692 690L900 784L1148 716L1368 776L1600 742V900H0Z" fill="#224355"/>
</svg>
